<svg id="图层_1" data-name="图层 1" xmlns="http://www.w3.org/2000/svg" viewBox="0 0 60 20"><defs><style>.cls-1{fill:#df001f;}</style></defs><title>logo_niu</title><g id="_编组_" data-name="&lt;编组&gt;"><path id="_复合路径_" data-name="&lt;复合路径&gt;" class="cls-1" d="M23.35,6.22,21,2.12a1.42,1.42,0,0,0-2.45,1.43h0l.52.89a.65.65,0,0,1-.57,1H7.67a.65.65,0,0,1-.57-1l.52-.9h0A1.42,1.42,0,0,0,6.39,1.42a1.43,1.43,0,0,0-1.23.7L2.8,6.22A1.42,1.42,0,0,0,4,8.35h.53a.86.86,0,0,1,.71.47l4.54,7.85h0a3.74,3.74,0,0,0,6.52,0h0l4.54-7.85a.86.86,0,0,1,.71-.47h.53a1.42,1.42,0,0,0,1.23-2.13ZM17,9.63l-3.22,5.58a.85.85,0,0,1-.72.43h0a.85.85,0,0,1-.72-.43L9.13,9.63a.85.85,0,0,1,.74-1.28h6.4A.85.85,0,0,1,17,9.63Z"/><g id="_编组_2" data-name="&lt;编组&gt;"><path id="_路径_" data-name="&lt;路径&gt;" class="cls-1" d="M32.41,4.34a5,5,0,0,0-5,5v5.21a1.12,1.12,0,1,0,2.24,0V9.34a2.76,2.76,0,0,1,5.52,0v5.21a1.12,1.12,0,1,0,2.24,0V9.34A5,5,0,0,0,32.41,4.34Z"/><path id="_路径_2" data-name="&lt;路径&gt;" class="cls-1" d="M56.27,4.34a1.12,1.12,0,0,0-1.12,1.12v5.21a2.76,2.76,0,1,1-5.52,0V5.46a1.12,1.12,0,1,0-2.24,0v5.21a5,5,0,1,0,10,0V5.46A1.12,1.12,0,0,0,56.27,4.34Z"/><path id="_路径_3" data-name="&lt;路径&gt;" class="cls-1" d="M42.4,4.34a1.12,1.12,0,0,0-1.12,1.12v9a1.12,1.12,0,0,0,2.24,0v-9A1.12,1.12,0,0,0,42.4,4.34Z"/></g></g></svg>